<svg width="142" height="40" fill="none" xmlns="http://www.w3.org/2000/svg"><path d="M56.635 13.667c0 4-2.725 6.333-6.357 6.333-4.046 0-6.935-3-6.935-6.75s2.972-6.75 6.77-6.75c2.476 0 4.54 1.25 5.614 3l-2.477 1.417c-.496-.834-1.651-1.5-3.138-1.5-2.146 0-3.797 1.583-3.797 3.916 0 2.167 1.569 3.834 4.045 3.834 1.734 0 2.807-.75 3.303-2h-3.468v-2.584h6.44v1.084zm6.192 3.916c.742 0 1.403-.333 1.733-.666l2.23 1.25c-.909 1.25-2.23 1.916-3.964 1.916-3.137 0-5.118-2.166-5.118-4.916 0-2.75 1.981-4.917 4.87-4.917 2.643 0 4.624 2.083 4.624 4.917 0 .416 0 .75-.082 1.083h-6.523c.413 1 1.239 1.333 2.23 1.333zm1.733-3.416c-.33-1.084-1.156-1.5-1.981-1.5-1.073 0-1.734.5-1.982 1.5h3.963zm7.513-1v3.25c0 .833.66.833 1.899.833v2.5c-3.633.333-4.623-.75-4.623-3.333v-3.25h-1.487V10.5h1.487V8.75l2.724-.833V10.5h1.899v2.667h-1.899zm6.605-3.5v2.5h4.788V15h-4.788v4.75h-2.972V6.833h7.76v2.834h-4.788zm6.274-1.584c0-.916.743-1.666 1.651-1.666s1.651.75 1.651 1.666c0 .917-.743 1.667-1.65 1.667-.909 0-1.652-.833-1.652-1.667zM85.2 10.5h2.724v9.25H85.2V10.5zm13.622 3.583v5.667h-2.725V14.5c0-1.167-.743-1.667-1.568-1.667-.99 0-1.734.584-1.734 1.917v5.083h-2.807V10.5h2.725v.833c.495-.666 1.403-1.166 2.641-1.166 1.9.083 3.468 1.416 3.468 3.916zm11.31-3.583v9.25h-2.807v-.833c-.578.666-1.486 1.166-2.724 1.166-2.394 0-4.376-2.166-4.376-4.916 0-2.75 1.982-4.917 4.376-4.917 1.238 0 2.146.417 2.724 1.167v-.834h2.807V10.5zm-2.807 4.667c0-1.417-.908-2.25-2.146-2.25-1.239 0-2.147.833-2.147 2.25 0 1.416.908 2.25 2.147 2.25 1.238 0 2.146-.834 2.146-2.25zm13.622-1.084v5.667h-2.724V14.5c0-1.167-.743-1.667-1.569-1.667-.99 0-1.733.584-1.733 1.917v5.083h-2.725V10.5h2.725v.833c.495-.666 1.403-1.166 2.642-1.166 1.816.083 3.384 1.416 3.384 3.916zm1.404 1.084c0-2.75 2.064-4.917 4.871-4.917 1.816 0 3.385.917 4.128 2.333L128.956 14c-.331-.667-.991-1-1.817-1-1.156 0-2.064.833-2.064 2.167 0 1.25.908 2.166 2.064 2.166.826 0 1.486-.416 1.817-1l2.394 1.417c-.826 1.417-2.312 2.417-4.128 2.417-2.807-.084-4.871-2.25-4.871-5zm14.613 2.416c.743 0 1.403-.333 1.733-.666l2.229 1.25c-.908 1.25-2.229 1.916-3.962 1.916-3.138 0-5.119-2.166-5.119-4.916 0-2.75 1.981-4.917 4.871-4.917 2.642 0 4.623 2.083 4.623 4.917 0 .416 0 .75-.082 1.083h-6.522c.412 1 1.238 1.333 2.229 1.333zm1.651-3.416c-.33-1.084-1.156-1.5-1.982-1.5-1.073 0-1.733.5-1.981 1.5h3.963zM46.48 30.083h.743v.75h.248c.495 0 .908.084 1.238.25.33.167.578.417.826.834.165.333.247.75.247 1.166 0 .417-.082.834-.33 1.25a1.999 1.999 0 01-.825.834c-.33.166-.744.25-1.239.25h-.165v.916h-.743v-.916h-.165c-.495 0-.908-.084-1.238-.25-.33-.167-.661-.417-.826-.834-.165-.333-.33-.75-.33-1.166 0-.417.082-.834.247-1.167.166-.333.413-.583.826-.833.33-.167.743-.25 1.238-.25h.248v-.834zm0 1.334h-.248c-.495 0-.908.166-1.155.416-.248.334-.413.667-.413 1.167 0 .583.165 1 .495 1.25.33.333.743.417 1.321.417h.083l-.083-3.25zm.743 3.416c.66 0 1.073-.166 1.404-.416.33-.334.495-.75.495-1.25s-.165-.917-.413-1.167c-.248-.25-.66-.417-1.156-.417h-.247l-.083 3.25zm4.293-3.166V35.5l2.394-3.833h.826v4.5h-.66v-3.834l-2.395 3.834h-.825v-4.5h.66zm5.366 0v1.916h2.477v-1.916h.66v4.5h-.577v-2h-2.477v2.083h-.66v-4.583h.577zm7.678.583h-1.486v3.917h-.66V32.25H61.01v-.583h3.55v.583zm2.807 4.083c-.66 0-1.156-.166-1.568-.583-.413-.417-.578-1-.578-1.667 0-.75.165-1.333.495-1.75a1.76 1.76 0 011.404-.666c.577 0 .99.166 1.32.583.33.417.496.833.496 1.5v.417H65.88c0 .5.165.916.413 1.25.248.25.578.416 1.073.416s.99-.083 1.404-.333v.583a5.653 5.653 0 00-.66.25h-.744zm-.165-4.166c-.33 0-.66.083-.826.333-.247.25-.33.583-.412 1h2.311c0-.417-.082-.75-.247-1-.248-.167-.496-.333-.826-.333zm4.045 1.75l-1.568-2.25h.743l1.156 1.75 1.156-1.75h.743l-1.57 2.25 1.652 2.333h-.743l-1.238-1.833-1.239 1.833h-.743l1.651-2.333zm6.192 2.333h-.66v-4.583h3.797v4.5h-.66V32.25h-2.394l-.083 4zm7.843 0h-.66v-3.917H83.3c-.083 1-.165 1.75-.33 2.334-.165.583-.33 1-.496 1.25-.247.25-.495.416-.825.416-.165 0-.248 0-.33-.083v-.5h.165c.33 0 .578-.333.743-1 .165-.667.33-1.667.412-3.083h2.642v4.583zm4.21 0l-.164-.667c-.248.25-.413.5-.66.584-.249.083-.496.166-.826.166-.413 0-.826-.083-1.074-.333a1.387 1.387 0 01-.412-1c0-.917.743-1.417 2.146-1.417h.743v-.25c0-.333-.083-.583-.248-.75-.165-.166-.412-.25-.743-.25-.412 0-.825.084-1.238.334l-.248-.5c.248-.084.496-.25.743-.25.248-.084.496-.084.826-.084.495 0 .908.084 1.156.334.247.25.413.583.413 1.166v3.084h-.413v-.167zm-1.568-.5c.413 0 .743-.083.99-.333.248-.25.331-.584.331-1V34h-.66c-.578 0-.908.083-1.156.25-.248.167-.33.417-.33.667 0 .25.082.416.247.583.165.167.33.25.578.25zm6.522-3.5H92.96v3.917h-.66V32.25h-1.486v-.583h3.55l.082.583zm5.697 1.75c0 .667-.165 1.25-.578 1.667-.413.416-.908.666-1.651.666v2h-.66v-2c-.661-.083-1.24-.25-1.57-.666-.412-.417-.577-1-.577-1.667s.165-1.25.578-1.667c.412-.416.908-.666 1.65-.666v-1.834h.661v1.834c.66.083 1.239.333 1.651.75.248.333.496.916.496 1.583zm-4.376 0c0 .5.083.917.33 1.25.248.333.66.5 1.156.5v-3.5c-.495.083-.908.25-1.156.5-.247.25-.33.667-.33 1.25zm3.633 0c0-1.083-.496-1.667-1.486-1.75v3.5c.495-.083.908-.25 1.156-.5.247-.333.33-.75.33-1.25zm5.779 0c0 .75-.165 1.333-.578 1.75-.33.417-.908.583-1.569.583-.412 0-.743-.083-1.073-.25-.33-.166-.578-.5-.743-.833-.165-.333-.248-.75-.248-1.25 0-.75.165-1.333.578-1.75.33-.417.908-.583 1.486-.583.661 0 1.156.25 1.486.666.496.334.661.917.661 1.667zm-3.385 0c0 .583.082 1 .33 1.333.248.334.578.417.991.417.413 0 .743-.167.991-.417.247-.333.33-.75.33-1.333s-.083-1-.33-1.333c-.248-.334-.578-.417-.991-.417-.413 0-.743.167-.991.417-.248.25-.33.75-.33 1.333zm6.687 2.333c-.33 0-.578-.083-.825-.166-.248-.084-.413-.25-.578-.5h-.083c0 .25.083.5.083.75v1.833h-.661v-6.583h.578l.083.583a1.54 1.54 0 01.578-.5c.165-.083.495-.167.825-.167.578 0 1.073.167 1.404.584.33.416.495 1 .495 1.75s-.165 1.333-.495 1.75c-.413.416-.826.666-1.404.666zm-.082-4.166c-.496 0-.826.166-.991.416-.165.25-.33.667-.33 1.25V34c0 .667.082 1.083.33 1.333s.578.417.991.417c.412 0 .66-.167.908-.5.247-.333.33-.75.33-1.333 0-.584-.083-1-.33-1.334-.248-.25-.578-.416-.908-.416zm5.448 3.416l.166-.416.165-.5 1.238-3h.826v4.5h-.578V32.5l-.083.25-.248.667-1.155 2.833h-.578l-1.156-2.917c-.165-.333-.248-.666-.33-.833v3.75h-.578v-4.5h.825l1.156 2.833c.083.334.248.667.33 1zm6.605.667l-.165-.667c-.248.25-.413.5-.661.584-.247.083-.495.166-.825.166-.413 0-.826-.083-1.073-.333a1.385 1.385 0 01-.413-1c0-.917.743-1.417 2.146-1.417h.743v-.25c0-.333-.082-.583-.247-.75-.165-.166-.413-.25-.743-.25-.413 0-.826.084-1.239.334l-.247-.5c.247-.084.495-.25.743-.25.247-.084.495-.084.825-.084.496 0 .908.084 1.156.334.248.25.413.583.413 1.166v3.084h-.413v-.167zm-1.569-.5c.413 0 .743-.083.991-.333s.33-.584.33-1V34h-.66c-.578 0-.908.083-1.156.25-.248.167-.33.417-.33.75 0 .25.082.417.248.583.082.084.33.167.577.167zm-75.21-11.583h97.914V25H43.673v-.833z" fill="#fff"/><path d="M22.208 20h-8.256v8.25h4.128v-4.167h4.128V20zm-8.256-1.75h8.256l4.458-4.083H13.952v4.083z" fill="#F8540D"/><path d="M33.766 14.167h-4.293l-4.128 4.083h3.798c.082.583.165 1.083.165 1.667 0 6.833-5.531 12.416-12.301 12.416-6.77 0-12.301-5.583-12.301-12.416 0-6.834 5.449-12.417 12.218-12.417 2.642 0 5.036.833 7.018 2.25l4.045-2.333c-2.972-2.667-6.77-4.25-11.063-4.25C7.76 3.167.33 10.667.33 19.917s7.43 16.75 16.594 16.75c9.164 0 16.842-7.5 16.842-16.75 0-.584.083-1.084 0-1.667v-4.083z" fill="#fff"/></svg>