<svg width="206" height="40" fill="none" xmlns="http://www.w3.org/2000/svg"><path d="M31.295 5.882H5.565L7.417.784H33.15l-1.854 5.098zm-.928 2.55H4.637L2.782 13.53h25.73l1.855-5.099zm-2.781 7.646H1.855L0 21.177h25.731l1.855-5.099z" fill="#009DE0"/><path d="M120.751 17.238c-1.614 0-2.652-.345-3.458-1.032-.807-.687-1.383-1.832-1.383-3.207 0-1.375.576-2.406 1.383-3.094.806-.687 1.844-1.03 3.457-1.03v-.917h2.074v.917c1.614 0 2.652.343 3.457 1.03.923.688 1.384 1.719 1.384 3.094 0 1.374-.576 2.52-1.383 3.207-.806.688-1.844 1.032-3.457 1.032v1.145h-2.075v-1.145h.001zm0-6.874c-1.73 0-2.766.916-2.766 2.635 0 1.718 1.036 2.75 2.765 2.75v-5.385h.001zm4.84 2.52c0-1.604-1.037-2.635-2.767-2.635v5.385c1.73 0 2.767-.917 2.767-2.75zm6.223-4.812h2.305l4.033 10.082h-2.189l-.922-2.291h-4.264l-.922 2.29h-2.075l4.034-10.08zm2.651 6.187l-.806-2.406a17.18 17.18 0 01-.692-2.291c-.116.572-.577 1.718-.692 2.29l-.807 2.407h2.997zm7.146 3.895h-2.075V8.072h2.075v4.353c.461-.572 1.382-1.717 1.728-2.176l1.959-2.177h2.536l-4.264 4.698 4.725 5.384h-2.766l-2.19-2.75c-.546-.72-1.084-1.445-1.613-2.176v4.926h-.115zm9.566-8.363h-2.767V8.073h7.722v1.718h-2.767v8.363h-2.074V9.79h-.114zm5.531 3.322c0-3.322 1.844-5.27 5.071-5.27 2.997 0 4.841 1.948 4.841 5.156 0 3.207-1.959 5.27-4.956 5.27-2.996.114-4.956-1.948-4.956-5.156zm7.722 0c0-2.29-1.152-3.666-2.766-3.666s-2.766 1.49-2.766 3.666c0 2.177 1.152 3.666 2.766 3.666s2.766-1.49 2.766-3.666zm4.148-5.04h2.536c2.306 0 4.265.572 4.265 3.093 0 2.405-1.959 3.093-4.265 3.093h-.461v3.895h-2.075V8.072zm2.421 4.697c1.383 0 2.305-.344 2.305-1.604 0-1.146-.806-1.604-2.305-1.604h-.346v3.208h.346zm5.878-4.698h1.959v3.666c0 1.032-.115 2.864-.115 3.896l4.265-7.56h2.304v10.08h-1.959v-3.666c0-1.031.116-2.864.116-3.895l-4.381 7.56h-2.19V8.074h.001zm10.949 0h2.074v4.01h4.034v-4.01h2.075v10.082h-2.075V13.8h-4.033v4.353h-2.075V8.072zm10.603 0h5.993v1.719h-3.918v8.363h-2.075V8.072zM91.938 33.276h4.61c1.728 0 2.766-.458 3.572-1.375.347-.458.922-1.26.922-2.863 0-1.604-.576-2.636-1.613-3.438-.576-.458-1.5-.687-2.881-.687h-4.495v8.363h-.115zm-5.993 5.041V8.072h19.822l-1.728 5.041H91.938v6.76h4.956c3.918 0 5.992.916 7.375 2.176 1.153.917 2.997 3.093 2.997 7.218 0 4.124-1.96 6.3-3.573 7.446-1.844 1.26-3.918 1.718-7.952 1.718h-9.797v-.114zm-17.518 0V13.113h-8.76v-5.04h24.318l-1.728 5.04h-7.838v25.204h-5.992zM43.993 20.216h3.457c1.038 0 1.614 0 2.076-.115 1.382-.458 2.305-1.717 2.305-3.437 0-2.062-.923-2.978-2.305-3.322-.577-.114-1.153-.229-2.305-.229h-3.228v7.103zm0 5.155v7.905h4.265c1.267 0 2.42-.114 3.226-.917.808-.801 1.269-1.833 1.269-3.092 0-1.032-.23-1.948-.807-2.636-.922-1.145-1.96-1.374-3.919-1.374h-4.033v.114zm9.797-3.208c1.152.573 2.305 1.26 2.88 1.72 1.845 1.488 2.537 3.436 2.537 5.956 0 4.124-2.19 7.103-5.878 8.02-1.152.343-2.305.458-4.38.458H37.885V8.072h9.797c1.959 0 3.341.115 4.609.458 3.573.917 5.879 3.323 5.879 7.218 0 2.062-.692 3.78-1.96 4.926-.576.459-1.268 1.031-2.42 1.49z" fill="#fff"/></svg>