<svg width="56" height="56" fill="none" xmlns="http://www.w3.org/2000/svg"><path fill-rule="evenodd" clip-rule="evenodd" d="M5.333 10.667a5.333 5.333 0 015.334-5.334h34.666a5.333 5.333 0 015.334 5.334v36A5.333 5.333 0 0145.333 52H10.668a5.333 5.333 0 01-5.333-5.333v-36zm16 10a4 4 0 11-7.999 0 4 4 0 018 0zm-4 20a4 4 0 100-8 4 4 0 000 8zm9.334-20A2.667 2.667 0 0129.333 18H40a2.667 2.667 0 010 5.333H29.334a2.667 2.667 0 01-2.667-2.666zM29.333 34a2.667 2.667 0 000 5.333H40A2.667 2.667 0 0040 34H29.334z" fill="#FA541C"/></svg>